<svg width="3438" height="1719" viewBox="0 0 3438 1719" fill="none" xmlns="http://www.w3.org/2000/svg">
<path fill-rule="evenodd" clip-rule="evenodd" d="M109.213 0.00561523C102.414 3.75531 95.3205 7.09933 87.9632 9.99297C59.5655 21.1573 29.922 25.4926 0 26.7669V29.7041C30.2314 28.4321 60.2106 24.0257 89.0118 12.709C98.1053 9.12775 106.792 4.85891 115.032 0.00561523H109.213" fill="#3BB951"/>
<path fill-rule="evenodd" clip-rule="evenodd" d="M211.083 0.00561523C181.104 34.1391 140.885 60.5234 94.9171 74.9732C64.0291 84.6833 32.1337 89.4105 0 91.691V94.6019C32.3859 92.3213 64.5735 87.5517 95.7709 77.7443C143.109 62.8578 184.433 35.4685 214.932 0.00561523H211.083" fill="#3BB951"/>
<path fill-rule="evenodd" clip-rule="evenodd" d="M278.216 0.00561523C277.377 1.19401 276.58 2.38356 275.727 3.57196C229.941 67.279 162.47 111.639 80.6346 131.856C53.942 138.442 26.5516 143.06 0 146.655V149.579C26.7613 145.983 54.3878 141.324 81.3188 134.681C163.843 114.298 231.872 69.5447 278.065 5.26574C279.322 3.51809 280.525 1.76816 281.743 0.00561523H278.216" fill="#3BB951"/>
<path fill-rule="evenodd" clip-rule="evenodd" d="M376.884 1022.98C404.539 1047.8 452.411 1043.01 494.729 1038.79C578.579 1030.39 664.514 1015.79 757.446 994.106C784.935 987.7 812.8 980.231 839.742 973.039C897.841 957.511 957.898 941.453 1018.07 934.68C1107.12 924.693 1197.67 930.875 1282.79 938.038C1360.8 944.642 1450.57 948.698 1528.66 913.473C1587.8 886.781 1636.64 839.568 1669.9 776.939C1701.46 717.499 1715.81 648.743 1710.27 583.341C1703.24 499.952 1671.65 426.591 1621.34 376.777C1600.84 356.479 1576.59 339.412 1553.15 322.905C1516.79 297.317 1479.21 270.865 1456.01 232.253C1420.51 173.163 1434.24 94.4472 1487.27 53.0687C1553.81 1.15161 1643.26 35.245 1678.63 52.3261C1703.15 64.147 1726.78 78.1075 1749.6 91.5936C1794.95 118.368 1841.82 146.054 1896.91 157.706C1969.8 173.108 2044.72 167.023 2117.12 161.133L2124.17 160.56C2267.73 148.922 2415.43 147.845 2505.74 270.57C2540.49 317.785 2560.98 374.202 2580.82 428.759C2588.51 449.97 2596.48 471.904 2605.18 492.985C2609.99 504.722 2615.12 516.586 2620.03 528.069C2644.91 585.858 2670.62 645.623 2671.24 710.056C2672.02 792.605 2623.85 859.182 2574.43 920.271L2563.66 933.588C2512.85 996.289 2464.87 1055.52 2425.36 1126.02C2419.4 1136.68 2413.67 1147.46 2407.57 1158.87C2377.69 1214.91 2346.81 1272.85 2294.73 1305.34C2233.12 1343.78 2155.79 1332.03 2087.56 1321.65L2083.44 1321.04C1998.41 1308.14 1915.01 1298.68 1829.82 1324.67C1784.74 1338.38 1742.32 1359.59 1701.28 1380.09C1667.85 1396.8 1633.29 1414.06 1597.69 1427.05C1587.56 1430.74 1577.45 1434.4 1567.37 1438.04C1496.75 1463.5 1430.07 1487.57 1365.08 1525.03C1305.81 1559.19 1255.52 1600.11 1202.28 1643.49C1191.49 1652.27 1180.67 1661.06 1169.75 1669.85C1144.65 1689.98 1120.44 1706.33 1096.74 1719H1119.85C1138.64 1707.75 1157.64 1694.41 1176.94 1678.94C1187.89 1670.12 1198.72 1661.31 1209.52 1652.52C1262.41 1609.47 1312.34 1568.82 1370.81 1535.1C1434.9 1498.17 1501.14 1474.27 1571.25 1448.96C1581.35 1445.31 1591.48 1441.68 1601.62 1437.96C1637.82 1424.75 1672.68 1407.35 1706.4 1390.51C1747.01 1370.19 1788.99 1349.23 1833.15 1335.78C1916.05 1310.51 1998.04 1319.8 2081.74 1332.51L2085.85 1333.14C2156.02 1343.81 2235.59 1355.9 2300.83 1315.19C2355.5 1281.08 2387.14 1221.74 2417.75 1164.35C2423.79 1152.99 2429.5 1142.28 2435.44 1131.73C2474.45 1062.09 2522.11 1003.23 2572.61 940.92L2583.38 927.604C2631.91 867.616 2683.6 796.355 2682.77 709.945C2682.16 643.158 2655.96 582.307 2630.65 523.454C2625.72 512.01 2620.63 500.176 2615.82 488.538C2607.22 467.678 2599.31 445.87 2591.64 424.775C2571.55 369.431 2550.76 312.219 2515 263.645C2421.19 136.15 2270.02 137.087 2123.26 148.977L2116.21 149.55C2044.58 155.371 1970.55 161.4 1899.26 146.332C1846.02 135.073 1802.03 109.093 1755.45 81.5776C1732.39 67.9666 1708.55 53.8789 1683.62 41.8459C1646.32 23.8423 1551.83 -11.9964 1480.21 43.8881C1422.62 88.8226 1407.65 174.214 1446.14 238.27C1470.6 278.979 1509.21 306.145 1546.54 332.43C1569.6 348.658 1593.45 365.447 1613.26 385.058C1661.61 432.929 1691.98 503.688 1698.79 584.32C1710.09 718.087 1636.54 852.06 1523.92 902.871C1448.36 936.976 1360.33 932.947 1283.76 926.483C1198.06 919.238 1106.87 913.027 1016.79 923.155C955.772 930.007 895.281 946.18 836.791 961.82C809.933 968.982 782.15 976.425 754.845 982.774C662.388 1004.35 576.943 1018.9 493.512 1027.23C453.628 1031.21 408.43 1035.74 384.564 1014.31C372.268 1003.29 366.096 986.19 365.704 962.044C364.727 900.688 389.278 836.35 438.672 770.854C448.508 757.801 458.636 744.665 468.428 731.95C507.598 681.096 548.109 628.513 579.587 570.122C614.546 505.31 648.596 428.245 683.709 334.545C719.227 239.754 732.391 154.81 723.928 74.8621C721.115 48.1718 715.31 23.4779 707.435 0.00561523H695.318C703.544 23.7736 709.574 48.7311 712.471 76.094C720.725 154.194 707.784 237.387 672.923 330.444C637.993 423.655 604.152 500.233 569.459 564.583C538.418 622.133 498.21 674.342 459.321 724.828C449.502 737.572 439.358 750.736 429.481 763.829C378.49 831.441 353.158 898.197 354.178 962.238C354.611 989.799 362.04 1009.66 376.884 1022.98" fill="#3BB951"/>
<path fill-rule="evenodd" clip-rule="evenodd" d="M769.869 1707.06C754.845 1702.02 739.317 1696.79 724.192 1691.98C651.478 1668.83 569.178 1639.03 512.801 1577.94C470.248 1531.82 458.971 1470.08 448.06 1410.35C445.082 1394.01 442.002 1377.13 438.323 1360.84C429.33 1321.01 418.248 1281.06 404.442 1238.72C400.205 1225.68 396.188 1212.06 392.313 1198.86C383.974 1170.48 375.345 1141.16 363.398 1114.13C345.434 1073.57 310.321 1062.29 281.728 1056.98C245.721 1050.32 207.557 1042.26 171.69 1023.76C115.676 994.862 75.065 944.894 43.8974 866.525C27.9646 826.446 13.6947 784.927 0 744.248V780.128C10.4366 810.5 21.3465 841.038 33.1961 870.834C65.0066 950.854 108.597 1004.26 166.43 1034.09C203.697 1053.31 242.796 1061.59 279.643 1068.42C318.492 1075.61 340.386 1090.69 352.849 1118.86C364.504 1145.19 373.022 1174.15 381.247 1202.16C385.151 1215.41 389.194 1229.16 393.489 1242.33C407.184 1284.32 418.165 1323.94 427.075 1363.42C430.7 1379.49 433.748 1396.24 436.716 1412.45C447.921 1473.8 459.518 1537.26 504.353 1585.85C562.646 1649.03 646.594 1679.46 720.725 1703.05C735.749 1707.84 751.235 1713.04 766.215 1718.08C767.126 1718.38 768.049 1718.69 768.958 1719H805.75C793.719 1715.08 781.758 1711.06 769.869 1707.06" fill="#3BB951"/>
<path fill-rule="evenodd" clip-rule="evenodd" d="M1779.65 35.4685C1838.1 65.5875 1893.28 94.0403 1957.9 105.302C2025.97 117.153 2094.3 106.885 2160.35 96.9363C2177.92 94.2925 2196.08 91.565 2213.96 89.2982C2302.48 78.0227 2368.45 85.1589 2427.79 112.382C2486 139.086 2537.14 184.343 2571.78 239.823C2599.69 284.56 2614.42 336.25 2628.66 386.246C2635.99 411.989 2643.57 438.596 2652.86 463.93C2659.49 482.046 2667.21 500.651 2674.65 518.641C2699.52 578.782 2725.27 640.95 2721.86 705.817C2716.54 806.134 2654.65 881.646 2594.78 954.687C2559.33 997.939 2522.65 1042.68 2497.52 1092.45C2450.46 1185.76 2435.24 1267.88 2452.28 1336.54C2456.28 1352.65 2461.06 1368.41 2465.68 1383.62C2484.2 1444.75 2501.72 1502.5 2461.96 1565.68C2446.46 1590.3 2429.11 1613.58 2412.36 1636.08C2392.68 1662.48 2372.57 1689.51 2355.27 1719H2358.63C2375.65 1690.21 2395.37 1663.72 2414.65 1637.83C2431.47 1615.29 2448.83 1591.94 2464.4 1567.25C2504.85 1502.92 2487.17 1444.56 2468.43 1382.79C2463.83 1367.59 2459.08 1351.89 2455.08 1335.84C2438.21 1267.88 2453.37 1186.43 2500.09 1093.77C2525.08 1044.27 2561.65 999.675 2597.01 956.532C2657.16 883.13 2719.36 807.24 2724.71 705.97C2728.17 640.446 2702.33 577.957 2677.31 517.523C2669.87 499.56 2662.17 480.984 2655.57 462.922C2646.31 437.687 2638.76 411.134 2631.43 385.45C2617.12 335.258 2602.36 283.355 2574.21 238.283C2539.26 182.328 2487.71 136.681 2429 109.752C2369.13 82.2767 2302.71 75.0856 2213.6 86.416C2195.69 88.6828 2177.51 91.424 2159.93 94.069C2094.07 103.974 2026 114.213 1958.4 102.435C1894.19 91.2441 1839.19 62.9002 1780.97 32.8808C1772.49 28.5146 1764.01 24.1369 1755.47 19.7993C1742.19 13.0723 1728.68 6.37162 1714.95 0.00561523H1708.03C1723.68 7.12454 1739.08 14.7374 1754.19 22.4007C1762.73 26.7245 1771.21 31.1022 1779.65 35.4685" fill="#3BB951"/>
<path fill-rule="evenodd" clip-rule="evenodd" d="M1508.81 364.453C1473.3 335.634 1436.6 305.838 1409.92 267.579C1368.8 208.585 1366.83 126.761 1404.89 59.139C1418.23 35.4398 1435.23 15.5201 1454.83 0.00561523H1450.25C1431.54 15.4078 1415.27 34.8095 1402.38 57.7123C1363.78 126.3 1365.81 209.339 1407.55 269.244C1434.45 307.851 1471.34 337.777 1507 366.704C1529.03 384.596 1551.84 403.089 1571.95 423.403C1623.68 475.611 1650.8 548.298 1646.34 622.806C1641.74 699.298 1604.92 770.238 1545.31 817.425C1455.43 888.546 1345.03 882.935 1238.27 877.535C1180.78 874.624 1121.32 871.604 1065.72 880.597C1049.09 883.286 1032.28 885.44 1016.01 887.509C997.555 889.86 978.46 892.292 959.577 895.539C926.351 901.246 892.874 908.408 860.506 915.347C849.074 917.782 837.645 920.244 826.203 922.621L819.627 923.994C747.358 939.1 665.44 956.253 590.316 948.81C545.731 944.389 511.374 928.469 493.566 903.987C479.997 885.313 476.038 861.978 481.817 834.629C491.959 786.535 520.162 744.302 547.425 703.452C562.283 681.211 577.628 658.212 589.73 634.696C612.153 591.091 629.584 544.102 646.428 498.665C650.639 487.32 654.834 475.989 659.103 464.728C665.998 446.568 673.258 428.201 680.281 410.436C694.606 374.231 709.42 336.797 721.8 299.108C756.509 193.45 764.551 97.146 746.381 0.00561523H743.441C761.658 96.84 753.67 192.834 719.058 298.2C706.707 335.788 691.92 373.196 677.61 409.359C670.574 427.138 663.311 445.506 656.415 463.693C652.135 474.952 647.937 486.298 643.729 497.643C626.897 543.011 609.51 589.915 587.168 633.366C575.153 656.73 559.833 679.658 545.032 701.831C517.614 742.918 489.257 785.389 478.992 834.027C473.044 862.215 477.172 886.333 491.245 905.696C509.544 930.875 544.629 947.214 590.021 951.692C665.591 959.19 747.751 941.984 820.215 926.847L826.789 925.474C838.233 923.071 849.676 920.636 861.107 918.174C893.45 911.262 926.896 904.099 960.053 898.421C978.881 895.175 997.947 892.742 1016.37 890.39C1032.67 888.321 1049.51 886.168 1066.17 883.466C1121.47 874.527 1180.78 877.535 1238.12 880.432C1345.42 885.872 1456.37 891.482 1547.08 819.702C1607.35 772 1644.57 700.307 1649.2 622.986C1653.72 547.641 1626.29 474.141 1574 421.346C1553.76 400.923 1530.91 382.387 1508.81 364.453" fill="#3BB951"/>
<path fill-rule="evenodd" clip-rule="evenodd" d="M1453.48 388.823C1433.02 369.544 1411.88 349.609 1393.07 328.334C1335.19 262.848 1314.68 189.855 1332.11 111.416C1341.3 70.0627 1357.11 31.9159 1377.59 0.00561523H1374.18C1353.98 31.8872 1338.4 69.783 1329.3 110.772C1311.64 190.189 1332.37 264.037 1390.92 330.262C1409.8 351.637 1431.01 371.616 1451.51 390.934C1485.1 422.592 1519.83 455.327 1545.22 494.987C1587.09 560.386 1589.24 636.85 1550.97 699.537C1504.86 775.077 1427.18 802.188 1370.13 811.632C1314.27 820.879 1256.23 823.005 1200.11 825.048C1169.5 826.166 1137.87 827.315 1107.02 829.621C1049.65 833.89 992.045 842.703 936.325 851.206C904.528 856.076 871.668 861.099 839.184 865.224L838.82 865.267C783.397 872.319 726.083 879.619 672.35 866.931C645.588 860.624 626.212 849.444 614.741 833.735C593.563 804.707 603.885 765.735 616.294 728.311C628.409 691.758 640.089 654.378 651.379 618.231C666.794 568.89 682.73 517.858 700.005 468.225C708.512 443.785 717.897 419.025 726.963 395.076C748.897 337.186 771.588 277.329 784.262 215.929C798.587 146.542 800.727 73.9533 790.682 0.00561523H787.775C797.833 73.7562 795.734 146.151 781.438 215.341C768.805 276.502 746.17 336.25 724.278 394.039C715.184 418.002 705.798 442.792 697.292 467.26C680.002 516.95 664.053 567.996 648.622 617.363C637.334 653.499 625.667 690.864 613.551 727.389C604.221 755.59 588.58 802.776 612.42 835.454C624.31 851.739 644.244 863.279 671.691 869.756C693.29 874.862 715.423 876.765 737.749 876.765C771.49 876.765 805.681 872.416 839.184 868.149L839.548 868.107C872.06 863.967 904.947 858.945 936.759 854.088C992.421 845.57 1049.97 836.783 1107.23 832.503C1138.02 830.209 1169.64 829.063 1200.2 827.942C1256.42 825.9 1314.56 823.773 1370.6 814.5C1428.24 804.959 1506.73 777.526 1553.43 701.061C1592.29 637.397 1590.14 559.771 1547.66 493.42C1522.07 453.451 1487.19 420.592 1453.48 388.823" fill="#3BB951"/>
<path fill-rule="evenodd" clip-rule="evenodd" d="M2102.69 0.00561523C2047.8 41.0208 1967.92 23.0172 1912.46 5.81009C1906.5 3.96503 1900.58 2.00538 1894.66 0.00561523H1885.66C1894.29 3.01386 1902.93 5.89604 1911.6 8.57996C1968.05 26.0942 2049.56 44.4072 2105.52 1.51489C2106.18 1.02555 2106.78 0.509854 2107.42 0.00561523H2102.69" fill="#3BB951"/>
<path fill-rule="evenodd" clip-rule="evenodd" d="M1335.01 323.156C1288.57 263.101 1272.38 190.762 1288.16 113.989C1293.86 86.2762 1304.73 44.0864 1324.15 0.00561523H1321C1301.81 43.903 1291.02 85.8006 1285.34 113.402C1269.36 191.043 1285.76 264.178 1332.72 324.947C1349.54 346.687 1369.69 367.865 1391.03 390.303C1456.27 458.851 1523.73 529.734 1504.7 626.106C1485.68 722.396 1376.02 751.158 1282.6 765.454C1250.53 770.364 1217.71 773.848 1185.97 777.232C1168.18 779.134 1149.81 781.094 1131.77 783.277C1111.99 785.669 1092.17 788.185 1072.34 790.718C1005.49 799.238 936.367 808.051 868.226 811.617C772.902 816.625 716.863 792.76 701.655 740.734C691.571 706.237 695.614 667.752 700.622 631.312C701.277 626.568 701.39 619.923 701.516 612.229C701.839 593.624 702.286 568.136 711.812 560.526L712.189 560.063C717.199 550.522 718.444 539.458 719.634 528.757C720.095 524.588 720.541 520.657 721.187 516.796C723.997 500.092 729.467 483.404 734.755 467.26L736.56 461.72C746.771 430.327 758.887 399.047 770.61 368.776C775.73 355.528 781.044 341.82 786.125 328.29C817.025 245.894 833.141 162.645 834.01 80.8362C834.302 54.005 832.778 26.7245 831.016 0.00561523H828.133C829.895 26.7245 831.42 54.0187 831.128 80.8064C830.259 162.267 814.198 245.195 783.422 327.256C778.346 340.781 773.043 354.479 767.923 367.727C756.185 398.027 744.057 429.347 733.833 460.811L732.013 466.349C726.695 482.59 721.187 499.394 718.345 516.306C717.688 520.25 717.212 524.404 716.765 528.433C715.617 538.773 714.414 549.444 709.769 558.455C699.417 567.1 698.985 592.071 698.636 612.174C698.51 619.783 698.399 626.344 697.768 630.92C692.717 667.669 688.631 706.504 698.886 741.545C713.184 790.465 762.076 815.17 844.361 815.17C852.067 815.17 860.084 814.96 868.367 814.528C936.619 810.947 1005.79 802.134 1072.71 793.6C1092.53 791.067 1112.32 788.548 1132.1 786.157C1150.13 783.976 1168.5 782.016 1186.27 780.128C1218.06 776.742 1250.91 773.232 1283.03 768.322C1370.03 755.003 1487.95 725.836 1507.53 626.665C1526.86 528.826 1458.86 457.384 1393.12 388.289C1371.83 365.922 1351.73 344.784 1335.01 323.156" fill="#3BB951"/>
<path fill-rule="evenodd" clip-rule="evenodd" d="M2481.63 1673C2468.73 1687.97 2455.61 1703.22 2443.05 1719H2446.77C2458.85 1703.92 2471.42 1689.28 2483.81 1674.9C2507.45 1647.49 2531.88 1619.15 2552.13 1588.31C2595.73 1522 2599.9 1455.83 2565.68 1373.77C2537.9 1307.19 2509.19 1238.36 2528.74 1158.93C2549.51 1074.6 2604.31 1008.24 2657.31 944.054C2701.15 890.924 2746.47 836.002 2772.72 770.952C2802.35 697.522 2799.05 613.392 2762.95 520.935C2760.6 514.893 2758.2 508.862 2755.82 502.819C2743.76 472.337 2731.29 440.805 2722.69 408.601C2715.45 381.519 2712 353.316 2708.7 326.039C2707.53 316.484 2706.33 306.594 2704.99 296.87C2699.25 255.714 2687.17 218.782 2665.76 177.108C2650.23 146.836 2627.64 121.011 2605.8 96.0435C2596.68 85.6196 2587.25 74.8472 2578.49 63.9236C2564.05 45.9062 2549.36 24.2629 2544.08 0.00561523H2541.09C2546.37 25.0307 2561.43 47.247 2576.26 65.74C2585.04 76.7209 2594.49 87.5231 2603.61 97.9573C2625.35 122.801 2647.82 148.487 2663.2 178.451C2684.42 219.819 2696.41 256.47 2702.1 297.277C2703.47 306.972 2704.68 316.848 2705.82 326.389C2709.18 353.765 2712.62 382.077 2719.9 409.359C2728.54 441.73 2741.04 473.331 2753.13 503.897C2755.51 509.926 2757.92 515.956 2760.27 521.999C2796.08 613.74 2799.38 697.13 2770.06 769.859C2743.98 834.491 2698.8 889.244 2655.07 942.178C2601.88 1006.64 2546.87 1073.26 2525.95 1158.23C2506.13 1238.59 2535.07 1307.89 2563.02 1374.89C2596.84 1455.95 2592.74 1521.27 2549.76 1586.72C2529.59 1617.38 2505.22 1645.64 2481.63 1673" fill="#3BB951"/>
<path fill-rule="evenodd" clip-rule="evenodd" d="M3437.99 44.7854C3390.62 41.8459 3347.28 44.8828 3303.88 53.8502C3267.35 61.3909 3230.72 71.1548 3195.3 80.5978C3147.96 93.2301 3099 106.282 3049.64 114.158C2984.29 124.593 2899.79 131.377 2825.88 90.9198C2781.7 66.7335 2747.34 34.8531 2726.47 0.00561523H2723.12C2744.18 35.8868 2779.26 68.7047 2824.5 93.4673C2868.43 117.516 2915.94 125.054 2961.04 125.054C2992.6 125.054 3022.98 121.349 3050.09 117.026C3099.59 109.122 3148.64 96.0539 3196.06 83.4078C3231.42 73.9659 3267.99 64.2158 3304.47 56.6889C3347.67 47.7799 3390.79 44.743 3437.99 47.6962V44.7854" fill="#3BB951"/>
<path fill-rule="evenodd" clip-rule="evenodd" d="M3030.12 0.00572998C3039.07 0.733438 3048.17 1.14027 3057.43 1.14027C3066.82 1.14027 3076.39 0.762088 3086.08 0.00572998H3030.12" fill="#3BB951"/>
<path fill-rule="evenodd" clip-rule="evenodd" d="M1337.42 388.347C1305.05 349.12 1271.57 308.55 1253.38 260.625C1226.71 190.413 1244.51 113.178 1267.71 40.1808C1271.87 27.1027 1276.16 13.6602 1280.56 0.00561523H1268.42C1264.42 12.442 1260.53 24.6961 1256.73 36.6431C1232.89 111.654 1214.66 191.209 1242.6 264.779C1261.49 314.499 1295.58 355.807 1328.55 395.761C1335.39 404.055 1342.48 412.645 1349.24 421.096C1402.69 487.824 1426.63 544.397 1420.44 589.231C1416.53 617.449 1400.48 641.775 1372.71 661.54C1302.68 711.385 1207.34 723.891 1123.22 734.916L1115.93 735.881C1103.5 737.517 1090.78 739.322 1078.5 741.07C1033.37 747.49 986.714 754.138 940.957 754.138C920.294 754.138 901.408 752.822 883.207 750.121C838.164 743.448 805.972 727.642 787.523 703.132C768.708 678.147 763.95 645.356 760.426 611.11C763.027 535.807 777.604 464.057 804.982 391.772C807.695 384.639 810.408 377.531 813.121 370.441C836.4 309.56 860.476 246.607 869.149 179.165C875.583 129.196 876.185 78.2886 876.773 29.0624C876.899 19.4795 877.024 9.75461 877.18 0.00561523H865.651C865.485 9.71564 865.359 19.3821 865.247 28.9214C864.66 77.813 864.057 128.386 857.706 177.683C849.214 243.74 826.455 303.25 802.352 366.272C799.636 373.377 796.908 380.484 794.21 387.633C766.315 461.271 751.487 534.367 748.884 611.11L748.871 611.503L748.911 611.893C752.604 648 757.641 682.664 778.332 710.139C798.658 737.168 833.394 754.472 881.529 761.606C900.289 764.391 919.733 765.747 940.957 765.747C987.528 765.747 1034.6 759.047 1080.11 752.57C1092.36 750.82 1105.05 749.017 1117.43 747.392L1124.7 746.441C1210.15 735.237 1307 722.533 1379.37 671.027C1409.84 649.331 1427.5 622.345 1431.85 590.827C1438.6 542.018 1414.54 484.103 1358.22 413.808C1351.39 405.287 1344.29 396.669 1337.42 388.347" fill="#3BB951"/>
<path fill-rule="evenodd" clip-rule="evenodd" d="M1272.66 389.352C1235.44 342.083 1196.96 293.22 1185.19 233.457C1173.33 173.108 1191.93 113.135 1209.9 55.1361C1215.52 37.0075 1221.24 18.3438 1225.95 0.00561523H1222.97C1218.32 18.0528 1212.68 36.4196 1207.15 54.2685C1189.05 112.62 1170.35 172.954 1182.37 234.032C1194.25 294.464 1232.97 343.623 1270.41 391.157C1279.41 402.6 1288.73 414.421 1297.37 426.061C1353.35 501.505 1363.1 562.779 1326.33 608.186C1290.27 652.727 1225.4 668.605 1178.02 680.202C1124.8 693.228 1061.93 706.529 999.108 706.529H999.095C976.041 706.529 953.841 704.698 933.15 701.089C857.608 687.898 815.628 637.437 808.351 551.236C808.199 480.94 835.437 415.206 861.763 351.622C864.602 344.799 867.43 337.985 870.212 331.173C900.862 256.218 915.651 187.852 916.727 116.017L916.893 104.225C917.37 70.7079 917.873 35.0479 921.091 0.00561523H918.18C914.992 35.0479 914.488 70.6792 914.012 104.196L913.846 115.977C912.769 187.433 898.051 255.463 867.542 330.067C864.757 336.865 861.932 343.678 859.104 350.506C832.666 414.352 805.317 480.367 805.483 551.362C812.871 639.174 855.664 690.514 932.646 703.957C953.517 707.595 975.873 709.44 999.095 709.44H999.108C1062.24 709.44 1125.32 696.08 1178.7 683.014C1226.48 671.334 1291.89 655.315 1328.56 610.019C1366.29 563.45 1356.56 500.972 1299.69 424.326C1291.01 412.644 1281.69 400.81 1272.66 389.352" fill="#3BB951"/>
<path fill-rule="evenodd" clip-rule="evenodd" d="M0 213.284C6.1964 211.537 12.3791 209.815 18.4792 208.124C83.5145 190.021 150.762 171.303 209.278 135.113C264.647 100.853 306.755 53.9763 347.394 0.00561523H343.77C303.72 52.9965 262.143 98.9933 207.769 132.638C149.601 168.618 82.5484 187.279 17.7102 205.326C11.8783 206.947 5.94428 208.6 0 210.265V213.284" fill="#3BB951"/>
<path fill-rule="evenodd" clip-rule="evenodd" d="M678.436 69.4759C672.769 45.6793 663.786 22.2345 652.204 0.00561523H648.974C660.767 22.4156 669.9 46.101 675.636 70.1601C692.774 142.023 684.21 218.671 647.883 318.679C615.666 407.344 578.986 486.118 538.85 552.817C505.877 607.613 465.143 651.972 422.013 698.935C410.863 711.091 399.322 723.654 388.031 736.314C376.311 749.436 364.641 762.991 353.353 776.101C337.559 794.453 321.219 813.407 304.545 831.498C301.313 834.979 298.024 838.646 294.655 842.393C273.349 866.064 249.203 892.88 220.58 903.036C212.748 905.807 204.746 907.234 196.773 907.234H196.758C139.848 907.205 93.2921 835.89 75.9188 805.226C44.5964 749.94 21.4874 689.813 0 630.569V639.004C20.7735 695.941 43.2957 753.492 73.4148 806.667C95.3091 845.304 140.45 910.116 196.758 910.116H196.773C205.067 910.116 213.404 908.66 221.533 905.778C250.855 895.373 275.251 868.262 296.781 844.339C300.154 840.602 303.439 836.952 306.657 833.469C323.374 815.353 339.713 796.37 355.536 778.017C366.811 764.907 378.477 751.367 390.174 738.245C401.448 725.613 412.988 713.05 424.138 700.908C467.366 653.834 508.2 609.374 541.311 554.327C581.544 487.461 618.307 408.519 650.596 319.672C687.121 219.106 695.711 141.941 678.436 69.4759" fill="#3BB951"/>
<path fill-rule="evenodd" clip-rule="evenodd" d="M1173.21 363.754C1157.97 347.036 1142.22 329.745 1128.85 311.965C1103.23 277.93 1090.36 248.469 1088.33 219.258C1086.11 187.181 1099.05 157.022 1111.57 127.838C1114.63 120.719 1117.79 113.347 1120.63 106.142C1130.34 81.5914 1146.7 40.1132 1151.45 0.00561523H1148.55C1143.8 39.6078 1127.56 80.7525 1117.96 105.065C1115.12 112.227 1111.97 119.585 1108.93 126.692C1096.26 156.182 1083.18 186.677 1085.45 219.47C1087.52 249.266 1100.57 279.216 1126.54 313.714C1139.99 331.605 1155.81 348.939 1171.09 365.71C1202.4 400.071 1234.79 435.602 1250.66 479.178C1274.36 544.242 1228.65 591.191 1177.96 613.446C1135.03 632.288 1083.87 643.104 1037.61 643.104C988.616 643.104 902.904 630.065 879.277 542.956C873.668 494.134 885.168 441.701 913.44 387.114C922.14 370.314 932.549 353.54 942.594 337.327C961.101 307.473 980.24 276.6 990.59 243.083C1003.33 201.827 998.146 157.998 993.123 115.625C989.304 83.2966 985.344 49.8622 989.373 17.7995C990.086 12.1211 991.221 6.1344 992.702 0.00561523H989.751C988.31 6.0072 987.204 11.8552 986.505 17.4362C982.434 49.8622 986.421 83.4662 990.269 115.977C995.249 158.041 1000.4 201.563 987.834 242.215C977.595 275.383 958.554 306.09 940.144 335.788C930.072 352.044 919.636 368.873 910.88 385.771C882.328 440.89 870.731 493.882 876.466 543.5C900.624 632.695 987.805 646.013 1037.61 646.013H1037.62C1084.26 646.013 1135.83 635.117 1179.1 616.105C1231 593.33 1277.76 545.124 1253.36 478.184C1237.29 434.063 1204.72 398.32 1173.21 363.754" fill="#3BB951"/>
<path fill-rule="evenodd" clip-rule="evenodd" d="M0 307.782C1.95851 305.376 4.05568 303.013 6.35111 300.717C33.6854 273.438 69.3442 256.918 103.827 240.943C108.597 238.717 113.381 236.508 118.124 234.27C177.79 206.15 255.122 165.932 324.13 104.099C336.006 93.4524 347.661 81.5627 359.983 68.9717C385.011 43.4412 410.584 17.3537 439.681 0.00561523H434.126C406.428 17.4649 381.934 42.4476 357.943 66.9433C345.646 79.4919 334.02 91.3415 322.214 101.931C253.471 163.526 176.377 203.603 116.894 231.64C112.164 233.878 107.394 236.087 102.609 238.298C67.9026 254.386 32.0214 271.019 4.3227 298.66C2.79852 300.174 1.37176 301.727 0 303.305V307.782" fill="#3BB951"/>
<path fill-rule="evenodd" clip-rule="evenodd" d="M634.103 84.0243C623.485 52.4235 602.934 20.6679 574.929 0.00561523H569.92C599.115 20.1637 620.505 52.6321 631.374 84.9469C650.806 142.711 647.994 209.927 622.8 290.449C599.339 365.374 562.478 444.862 516.174 520.305C475.396 586.756 423.721 638.431 358.682 695.577C355.788 698.124 352.795 700.782 349.689 703.525C308.21 740.288 251.399 790.648 196.046 790.648H196.031C187.273 790.648 178.741 789.333 170.681 786.757C115.565 769.104 83.809 713.442 57.6917 655.905C32.8328 601.135 15.3334 543.179 0 485.458V496.594C14.702 550.983 31.6146 605.43 55.0766 657.12C81.4597 715.245 113.619 771.525 169.814 789.528C178.153 792.187 186.966 793.545 196.031 793.545C196.046 793.545 196.046 793.545 196.046 793.545C252.492 793.545 309.777 742.777 351.592 705.704C354.697 702.962 357.691 700.307 360.571 697.774C425.818 640.446 477.663 588.587 518.623 521.833C565.053 446.19 602.026 366.481 625.542 291.318C650.945 210.193 653.744 142.373 634.103 84.0243" fill="#3BB951"/>
<path fill-rule="evenodd" clip-rule="evenodd" d="M501.135 77.9104C467.968 77.9104 428.531 95.7043 383.921 130.79C317.459 183.067 246.699 228.366 180.138 269.535C176.137 272.011 172.08 274.489 168.011 276.964C141.766 292.926 114.642 309.447 94.301 332.488C65.7634 364.831 58.6433 406.771 57.7059 436.261C57.4549 444.414 57.5237 453.327 57.9442 463.509C69.8913 539.346 88.5114 616.706 143.25 667.654C162.932 685.953 186.03 695.241 211.895 695.241H211.909C259.571 695.241 308.531 664.353 341.226 641.116C450.803 563.255 534.613 437.518 577.21 287.106C592.15 234.339 607.341 158.6 566.942 110.241C549.006 88.7939 526.874 77.9104 501.135 77.9104ZM211.909 698.137H211.895C185.272 698.137 161.519 688.598 141.304 669.78C85.9063 618.23 67.1212 540.312 55.0767 463.79C54.6413 453.367 54.5725 444.386 54.8246 436.16C55.7895 406.195 63.0357 363.544 92.1463 330.557C112.766 307.195 140.1 290.561 166.527 274.474C170.584 271.998 174.627 269.535 178.629 267.06C245.12 225.931 315.793 180.689 382.158 128.498C427.273 93.0053 467.309 75.0017 501.135 75.0017C527.757 75.0017 550.642 86.2359 569.15 108.365C610.432 157.79 595.101 234.493 579.98 287.903C537.215 438.945 453.012 565.239 342.89 643.494C309.889 666.955 260.381 698.137 211.909 698.137V698.137Z" fill="#3BB951"/>
<path fill-rule="evenodd" clip-rule="evenodd" d="M1110.28 967.836C1096.11 967.836 1082.16 968.312 1068.84 969.318C978.042 976.005 891.21 1000.18 818.244 1022.95C795.064 1030.2 770.987 1036.91 747.708 1043.43C691.669 1059.07 633.725 1075.27 581.155 1100.31C537.312 1121.21 486.404 1162.03 492.882 1237.85C513.014 1365.41 569.864 1535.77 726.39 1622.47C808.953 1668.2 887.714 1693.85 960.485 1698.75C965.814 1699.11 971.229 1699.3 976.573 1699.3C1039.82 1699.3 1103.39 1674.84 1176.63 1622.34C1192.15 1611.2 1207.73 1599.72 1222.8 1588.68C1274.43 1550.71 1327.81 1511.46 1385.81 1480.25C1416.74 1463.64 1449.42 1448.67 1481.02 1434.21C1525.87 1413.67 1572.25 1392.46 1614.42 1366.06C1633.35 1354.22 1652.06 1340.98 1670.13 1328.2C1716.51 1295.38 1764.46 1261.44 1821.45 1247.23C1850.66 1239.93 1882.16 1236.51 1920.52 1236.51C1950.04 1236.51 1980.09 1238.55 2009.16 1240.55C2030.37 1241.97 2052.3 1243.48 2073.59 1244.12C2082.65 1244.41 2091.08 1244.55 2099.33 1244.55C2154.28 1244.55 2234.81 1239 2299.35 1191.17C2341.59 1159.85 2374.25 1117.24 2405.84 1076C2418.03 1060.08 2430.65 1043.63 2443.61 1028.1C2457.12 1011.93 2471.25 995.758 2484.93 980.119C2523.43 936.136 2563.24 890.643 2593.57 839.442C2633.66 771.706 2639.01 693.884 2609.43 608.172C2582.77 530.868 2546.82 449.912 2502.58 367.53C2465.6 298.689 2417.15 251.615 2358.5 227.623C2308.86 207.311 2253.75 197.856 2185.06 197.856C2140.32 197.856 2094.32 201.842 2049.81 205.704C2005.49 209.536 1959.67 213.508 1915.29 213.508C1899.32 213.508 1884.6 213.02 1870.24 212.013C1828.06 209.018 1792.69 201.143 1762.19 187.924C1739.05 177.893 1718.24 163.331 1698.1 149.243C1685.11 140.164 1671.67 130.764 1657.75 122.69C1630.7 106.982 1607.01 99.3578 1585.35 99.3578C1576.19 99.3578 1567.28 100.741 1558.84 103.498C1524.35 114.746 1506.62 145.9 1514.76 181.039C1524.77 224.365 1569.11 250.104 1608.26 272.796C1616.44 277.552 1624.16 282.041 1631.34 286.548C1682.09 318.429 1716.61 376.021 1736.88 462.602C1754.11 536.086 1770.9 632.164 1747.84 723.668C1728.05 802.146 1686.75 876.108 1634.51 926.567C1585.76 973.684 1517.88 996.598 1426.99 996.598C1373.81 996.598 1319.42 989.015 1275.7 982.944C1222.19 975.501 1166.85 967.836 1110.28 967.836ZM976.586 1702.19C976.586 1702.19 976.586 1702.19 976.572 1702.19C971.16 1702.19 965.687 1702.02 960.29 1701.65C887.097 1696.73 807.933 1670.94 725.005 1625.02C567.457 1537.75 510.257 1366.5 490.013 1238.2C483.383 1160.61 535.254 1118.97 579.922 1097.68C632.704 1072.53 690.772 1056.3 746.94 1040.64C770.19 1034.11 794.252 1027.4 817.39 1020.18C890.51 997.381 977.537 973.123 1068.64 966.407C1082.02 965.431 1096.04 964.925 1110.28 964.925C1167.05 964.925 1222.49 972.618 1276.11 980.062C1319.72 986.132 1374 993.688 1426.99 993.688C1517.1 993.688 1584.32 971.054 1632.51 924.469C1684.37 874.372 1725.39 800.931 1745.04 722.955C1767.95 632.066 1751.23 536.435 1734.09 463.272C1713.99 377.476 1679.88 320.47 1629.81 289.009C1622.67 284.534 1614.97 280.056 1606.81 275.314C1567.17 252.314 1522.24 226.254 1511.94 181.698C1503.47 145.003 1521.95 112.465 1557.96 100.727C1566.68 97.8875 1575.89 96.447 1585.35 96.447C1607.52 96.447 1631.68 104.211 1659.18 120.171C1673.22 128.3 1686.71 137.743 1699.74 146.865C1719.76 160.867 1740.45 175.332 1763.31 185.25C1793.53 198.346 1828.55 206.15 1870.44 209.116C1884.71 210.124 1899.4 210.613 1915.29 210.613C1959.55 210.613 2005.32 206.64 2049.59 202.807C2094.12 198.945 2140.21 194.945 2185.06 194.945C2254.14 194.945 2309.59 204.471 2359.58 224.938C2418.84 249.183 2467.81 296.704 2505.14 366.146C2549.45 448.669 2585.46 529.777 2612.17 607.22C2642.03 693.786 2636.6 772.419 2596.04 840.926C2565.59 892.349 2525.7 937.954 2487.11 982.048C2473.44 997.662 2459.3 1013.83 2445.82 1029.98C2432.89 1045.45 2420.3 1061.9 2408.13 1077.79C2376.41 1119.17 2343.64 1161.95 2301.06 1193.48C2235.82 1241.85 2154.67 1247.42 2099.33 1247.42C2091.05 1247.42 2082.6 1247.31 2073.51 1247.03C2052.16 1246.36 2030.2 1244.88 2008.97 1243.42C1979.95 1241.46 1949.92 1239.42 1920.52 1239.42C1882.39 1239.42 1851.14 1242.8 1822.12 1250.02C1765.66 1264.13 1717.94 1297.89 1671.78 1330.58C1653.67 1343.39 1634.95 1356.65 1615.95 1368.54C1573.6 1395.02 1527.14 1416.27 1482.21 1436.87C1450.65 1451.31 1418.03 1466.24 1387.17 1482.83C1329.33 1513.95 1276.04 1553.12 1224.5 1590.99C1209.43 1602.11 1193.82 1613.55 1178.29 1624.68C1104.55 1677.56 1040.45 1702.19 976.586 1702.19V1702.19Z" fill="#3BB951"/>
<path fill-rule="evenodd" clip-rule="evenodd" d="M3437.99 470.366C3427.72 468.785 3417.57 466.881 3407.55 465.009C3392.61 462.195 3377.16 459.287 3361.53 457.482C3276.55 447.675 3207.25 452.012 3143.43 471.119L3134.25 473.89C3078.63 490.748 3015.57 509.856 2969.44 469.329C2930.48 435.112 2925.36 371.475 2940.48 326.317C2967.11 246.664 3059.8 215.536 3134.25 190.539C3143.34 187.476 3152.25 184.496 3160.75 181.514C3174.71 176.632 3188.78 171.473 3202.41 166.477C3250.7 148.768 3300.64 130.454 3352.23 122.089C3379.88 117.614 3408.53 115.766 3437.99 116.465V104.856C3407.91 104.156 3378.65 106.045 3350.41 110.632C3297.73 119.166 3247.26 137.674 3198.46 155.567C3184.9 160.545 3170.82 165.694 3156.97 170.547C3148.5 173.515 3139.65 176.481 3130.62 179.515C3053.7 205.34 2958.02 237.473 2929.53 322.612C2913.23 371.435 2919.07 440.513 2961.85 478.087C2984.6 498.05 3010.96 504.932 3038.13 504.932C3071.83 504.932 3106.81 494.343 3137.58 485.011L3146.73 482.256C3208.98 463.596 3276.84 459.399 3360.21 469.007C3375.45 470.77 3390.7 473.637 3405.42 476.423C3416.11 478.421 3426.96 480.465 3437.99 482.13V470.366" fill="#3BB951"/>
<path fill-rule="evenodd" clip-rule="evenodd" d="M127.596 492.246C133.137 526.39 149.278 586.168 195.303 606.005C207.993 611.475 221.63 614.245 235.858 614.245C274.411 614.245 318.366 594.323 366.504 555.015C444.466 491.377 505.012 381.617 520.775 275.383C525.715 242.118 525.923 199.128 498.883 183.124C490.46 178.145 480.74 175.612 469.968 175.612C433.176 175.612 389.599 204.709 360.768 223.959C357.523 226.128 354.431 228.185 351.52 230.102C334.817 241.069 317.556 251.712 300.853 261.994C267.026 282.826 232.067 304.367 200.55 329.48C177.928 347.498 159.127 369.054 141.361 397.285C125.44 422.607 126.42 454.29 127.372 484.928C127.441 487.375 127.527 489.824 127.596 492.246ZM235.858 625.869H235.843C220.066 625.855 204.887 622.778 190.757 616.678C139.499 594.589 122 530.155 116.138 493.712L116.069 492.945C115.998 490.412 115.929 487.866 115.846 485.292C114.881 454.405 113.803 419.403 131.612 391.075C150.091 361.696 169.717 339.229 193.387 320.372C225.449 294.828 260.717 273.102 294.822 252.091C311.456 241.836 328.663 231.248 345.211 220.377C348.108 218.476 351.17 216.433 354.388 214.278C384.381 194.26 429.692 164.001 469.968 164.001C482.822 164.001 494.517 167.066 504.731 173.108C530.891 188.594 540.122 223.58 532.192 277.09C516.019 386.038 453.838 498.68 373.763 564.036C323.529 605.067 277.127 625.869 235.858 625.869V625.869Z" fill="#3BB951"/>
<path fill-rule="evenodd" clip-rule="evenodd" d="M3437.99 378.932C3414.46 377.323 3389.17 373.938 3360.41 368.552L3357.96 368.103C3320.15 361.055 3268.36 351.399 3243.01 320.26C3234.95 310.384 3232.18 299.893 3234.78 289.077C3243.36 253.084 3307.94 221.175 3335.31 209.115C3365.55 195.784 3403.91 194.538 3437.99 193.587V190.694C3403.63 191.645 3364.93 192.888 3334.16 206.459C3306.38 218.685 3240.85 251.139 3231.98 288.407C3229.15 300.144 3232.12 311.476 3240.76 322.094C3266.79 354.058 3319.19 363.822 3357.44 370.959L3359.87 371.421C3388.83 376.818 3414.29 380.233 3437.99 381.84V378.932" fill="#3BB951"/>
<path fill-rule="evenodd" clip-rule="evenodd" d="M601.676 1271.18C629.991 1411.15 726.22 1541 846.92 1601.99C892.286 1624.9 941.18 1637.05 988.295 1637.05C1017.56 1637.05 1046.28 1632.47 1073.63 1623.4C1134.44 1603.31 1188.81 1564.67 1241.41 1527.32C1256.56 1516.55 1272.24 1505.41 1287.69 1495C1336.4 1462.18 1387.88 1431.97 1437.67 1402.76C1464.97 1386.73 1493.21 1370.17 1520.59 1353.4C1553.29 1333.37 1583.57 1308.14 1610.59 1278.42C1625.43 1262.11 1638.32 1243.5 1650.78 1225.51C1662.2 1209.03 1674.01 1192 1687.46 1176.44C1710.64 1149.63 1742.62 1136.6 1785.22 1136.6C1813.37 1136.6 1842.29 1142 1870.24 1147.21C1880.71 1149.16 1890.58 1150.98 1900.23 1152.52C1959.05 1161.81 2019.85 1171.43 2079.99 1171.43C2109.46 1171.43 2136.21 1169.16 2161.75 1164.52C2203.13 1156.99 2240.34 1143.09 2272.37 1123.17C2295.1 1109.04 2314.8 1090.21 2333.82 1072.03C2343.37 1062.91 2353.23 1053.5 2363.42 1044.69C2381.36 1029.19 2397.22 1010.47 2412.57 992.344C2421.11 982.298 2429.92 971.893 2439.01 962.127C2442.44 958.492 2445.84 954.824 2449.26 951.159C2474.66 924.022 2500.94 895.931 2523.27 865.617C2557.51 819.158 2594.58 745.742 2576.76 659.836C2563.47 595.778 2530.31 535.946 2498.25 478.086C2492.17 467.134 2485.88 455.788 2479.92 444.724C2448.39 386.347 2407.41 322.234 2342.16 289.4C2292.55 264.401 2234.89 253.265 2155.21 253.265C2141.66 253.265 2126.92 253.574 2110.1 254.216L2101.13 254.554C2021.47 257.574 1939.09 260.679 1865.04 290.605C1788.8 321.394 1790.99 396.99 1799.74 471.793C1801.45 486.424 1803.47 501.631 1805.39 516.334C1814.26 583.845 1823.44 653.638 1813.62 719.96C1803.86 785.947 1776.6 849.317 1750.21 910.591C1745.64 921.252 1741.07 931.884 1736.63 942.429C1734.64 947.186 1732.65 952 1730.65 956.867C1719.69 983.588 1708.36 1011.2 1690.81 1034.14C1666.47 1065.98 1630.33 1072.98 1598.18 1075.61C1587.98 1076.45 1577.27 1076.87 1566.32 1076.87C1517.1 1076.87 1467.25 1068.42 1419.06 1060.25C1405.05 1057.87 1390.55 1055.41 1376.47 1053.25C1353.12 1049.64 1329.32 1045.5 1306.32 1041.53C1247.76 1031.34 1187.24 1020.85 1127.52 1017.8C1118.59 1017.33 1109.48 1017.11 1100.46 1017.11C1033.82 1017.11 965.269 1029.25 890.903 1054.18C810.267 1081.23 742.812 1110.33 684.672 1143.12C623.989 1177.33 596.067 1220.42 601.676 1271.18ZM988.309 1648.66H988.296C939.39 1648.66 888.705 1636.1 841.746 1612.38C779.589 1580.95 723.143 1532.13 678.518 1471.13C634.913 1411.57 604.418 1343.14 590.331 1273.22L590.248 1272.71C583.935 1216.79 613.818 1169.78 679.037 1132.99C737.817 1099.84 805.933 1070.46 887.263 1043.18C962.82 1017.83 1032.56 1005.49 1100.46 1005.49C1109.68 1005.49 1118.98 1005.75 1128.1 1006.19C1188.51 1009.3 1249.39 1019.85 1308.28 1030.06C1331.23 1034.06 1354.97 1038.17 1378.22 1041.75C1392.39 1043.94 1406.92 1046.43 1420.98 1048.8C1468.71 1056.89 1518.07 1065.25 1566.32 1065.25C1576.96 1065.25 1587.35 1064.84 1597.24 1064.03C1626.88 1061.62 1660.08 1055.3 1681.67 1027.06C1698.29 1005.33 1709.32 978.44 1719.99 952.446C1722.01 947.55 1724 942.681 1726.02 937.897C1730.47 927.323 1735.04 916.69 1739.65 905.976C1765.72 845.387 1792.69 782.729 1802.21 718.253C1811.77 653.539 1802.71 584.572 1793.94 517.858C1792.02 503.113 1790 487.865 1788.29 473.147C1779.4 397.355 1776.94 313.67 1860.73 279.818C1936.66 249.154 2020.04 246.005 2100.68 242.957L2109.65 242.607C2126.61 241.962 2141.52 241.656 2155.21 241.656C2236.77 241.656 2296.01 253.168 2347.33 279.007C2415.4 313.295 2457.68 379.21 2490.05 439.168C2496.01 450.193 2502.27 461.495 2508.32 472.434C2540.8 531.049 2574.4 591.666 2588.06 657.458C2602.86 728.802 2583.64 803.183 2532.53 872.542C2509.8 903.4 2483.28 931.715 2457.65 959.133C2454.27 962.771 2450.85 966.436 2447.44 970.074C2438.54 979.643 2429.81 989.937 2421.36 999.899C2405.72 1018.34 2389.53 1037.42 2370.95 1053.51C2360.96 1062.12 2351.19 1071.44 2341.76 1080.45C2322.29 1099.05 2302.15 1118.27 2278.45 1133.05C2245.18 1153.73 2206.6 1168.19 2163.82 1175.97C2137.55 1180.73 2110.13 1183.05 2079.99 1183.05C2018.95 1183.05 1957.71 1173.37 1898.45 1163.99C1888.62 1162.42 1878.69 1160.58 1868.15 1158.62C1840.7 1153.53 1812.3 1148.24 1785.22 1148.24C1745.62 1148.24 1717.31 1159.63 1696.17 1184.08C1683.11 1199.16 1671.48 1215.95 1660.24 1232.18C1647.56 1250.47 1634.45 1269.39 1619.1 1286.28C1591.34 1316.81 1560.22 1342.72 1526.58 1363.32C1499.1 1380.15 1470.83 1396.75 1443.49 1412.8C1393.84 1441.93 1342.51 1472.06 1294.09 1504.65C1278.77 1514.98 1263.15 1526.09 1248.06 1536.8C1194.77 1574.66 1139.67 1613.8 1077.22 1634.45C1048.71 1643.88 1018.79 1648.66 988.309 1648.66V1648.66Z" fill="#3BB951"/>
<path fill-rule="evenodd" clip-rule="evenodd" d="M2117.74 304.342C2095.33 304.342 2071.63 305.503 2045.33 307.88C1974.57 314.287 1925.56 335.662 1895.48 373.251C1858.55 419.417 1859.7 482.298 1864.81 531.916C1866.19 544.984 1867.7 558.134 1869.18 570.863C1875.48 624.862 1881.4 675.851 1876.01 730.034C1873.33 757.102 1868.12 784.354 1863.08 810.708C1853.88 858.804 1844.39 908.549 1849.96 958.574C1879.54 1084.53 2040.47 1094.36 2089.09 1094.36C2094.8 1094.36 2100.53 1094.24 2106.16 1094.02C2259.93 1087.83 2377.75 971.53 2453 884.586C2516.85 810.806 2540.19 742.623 2526.47 670.004C2512.77 597.276 2468.65 523.987 2427.3 461.888C2383.01 395.369 2323.52 347.818 2255.31 324.403C2215.98 310.903 2170.99 304.342 2117.74 304.342ZM2089.09 1097.26V1097.26C2034.2 1097.26 1981.79 1086.88 1941.59 1068.05C1890.25 1044.02 1858.47 1007.37 1847.14 959.078C1841.46 908.437 1851.02 858.483 1860.26 810.162C1865.27 783.865 1870.47 756.68 1873.15 729.739C1878.49 675.88 1872.59 625.028 1866.32 571.199C1864.85 558.469 1863.31 545.305 1861.96 532.226C1856.79 482.046 1855.64 418.422 1893.24 371.434C1923.82 333.202 1973.49 311.461 2045.05 304.984C2071.47 302.592 2095.21 301.431 2117.74 301.431C2171.32 301.431 2216.62 308.049 2256.24 321.647C2325.07 345.275 2385.05 393.214 2429.71 460.278C2471.19 522.614 2515.48 596.225 2529.33 669.459C2543.21 743.029 2519.66 811.995 2455.16 886.489C2379.57 973.85 2261.15 1090.69 2106.27 1096.93C2100.59 1097.15 2094.84 1097.26 2089.09 1097.26V1097.26Z" fill="#3BB951"/>
<path fill-rule="evenodd" clip-rule="evenodd" d="M392.019 306.705C363.802 306.705 325.222 326.472 310.684 333.915C276.118 351.623 196.827 401.273 207.265 479.611C217.756 517.914 244.741 525.987 265.529 525.987C285.378 526.001 308.923 518.432 330.143 505.226C357.551 488.175 381.08 463.3 398.187 433.278C407.003 417.807 434.785 364.356 422.376 325.956C418.248 313.184 408.038 306.705 392.019 306.705ZM265.529 528.894V528.894C243.732 528.894 215.461 520.446 204.451 480.186C193.721 399.817 274.259 349.317 309.384 331.327C324.072 323.801 363.103 303.809 392.018 303.809C409.435 303.809 420.571 310.957 425.132 325.06C437.904 364.593 409.644 418.996 400.691 434.72C383.347 465.16 359.481 490.397 331.657 507.703C310 521.173 285.897 528.894 265.529 528.894V528.894Z" fill="#3BB951"/>
<path fill-rule="evenodd" clip-rule="evenodd" d="M2104.43 365.544C2057.01 365.544 2017.22 375.741 1986.13 395.873C1945.26 422.368 1926.45 469.148 1930.24 534.911C1931.13 543.277 1932.02 551.685 1932.94 560.091C1941.56 640.348 1950.49 723.358 1944.58 806.401C1938.68 889.356 1957.06 945.145 2000.8 976.956C2035.09 1001.94 2074.01 1014.59 2116.48 1014.59C2242.73 1014.59 2357.18 906.898 2389.28 873.87C2453.37 807.91 2478.78 747.548 2469.23 683.94C2459.66 620.118 2420.63 546.563 2362.16 482.13C2308.92 423.431 2242.58 385.295 2170.35 371.824C2147.93 367.656 2125.74 365.544 2104.43 365.544ZM2116.52 1017.5C2116.48 1017.5 2116.52 1017.5 2116.48 1017.5C2073.39 1017.5 2033.91 1004.65 1999.11 979.334C1954.49 946.85 1935.71 890.224 1941.7 806.191C1947.57 723.401 1939.07 644.222 1930.06 560.4C1929.17 551.992 1928.28 543.584 1927.37 535.148C1923.52 468.196 1942.76 420.52 1984.59 393.423C2016.13 372.999 2056.44 362.633 2104.43 362.633C2125.94 362.633 2148.3 364.773 2170.85 368.97C2243.72 382.554 2310.63 421.01 2364.28 480.172C2423.15 545.009 2462.44 619.128 2472.09 683.503C2481.77 748.092 2456.11 809.224 2391.34 875.913C2359.06 909.107 2243.84 1017.5 2116.52 1017.5V1017.5Z" fill="#3BB951"/>
<path fill-rule="evenodd" clip-rule="evenodd" d="M1052.73 404.743C1030.1 404.743 1007.8 415.861 991.526 435.252C974.377 455.69 966.613 482.579 970.739 507.157C981.637 544.956 1024.15 561.953 1061.43 561.953C1061.44 561.953 1061.44 561.953 1061.44 561.953C1099.65 561.953 1131.13 545.362 1143.59 518.641C1150.45 503.912 1150.44 487.908 1143.52 471.093C1130.96 440.513 1100.4 417.555 1077.32 409.149C1069.29 406.224 1061.01 404.743 1052.73 404.743ZM1061.44 564.861C1061.44 564.861 1061.44 564.861 1061.43 564.861C1023.07 564.846 979.288 547.207 967.928 507.8C963.619 482.227 971.635 454.46 989.329 433.379C1006.15 413.332 1029.24 401.846 1052.73 401.846C1061.35 401.846 1069.95 403.385 1078.3 406.419C1101.96 415.037 1133.29 438.596 1146.19 469.973C1153.33 487.335 1153.33 504.582 1146.19 519.873C1133.25 547.614 1100.78 564.861 1061.44 564.861V564.861Z" fill="#3BB951"/>
<path fill-rule="evenodd" clip-rule="evenodd" d="M3437.99 1692.95C3421.7 1694.52 3405 1695.13 3387.93 1694.74C3319.89 1693.26 3254.87 1672.67 3199.86 1635.18C3148.41 1600.09 3105.04 1551.78 3074.52 1495.45C3056.11 1461.46 3046.52 1434.01 3043.47 1406.48C3039.92 1374.39 3041.92 1337.41 3048.56 1312.22C3061.23 1264.33 3091.61 1216.79 3118.45 1174.85C3123.25 1167.35 3127.99 1159.94 3132.55 1152.64C3172.64 1088.64 3215.95 1029.64 3261.28 977.291C3307.75 923.629 3357.05 875.522 3407.71 834.322C3417.7 826.208 3427.8 818.459 3437.99 811.099V807.547C3427.19 815.296 3416.47 823.467 3405.92 832.056C3355.09 873.367 3305.71 921.587 3259.1 975.388C3213.68 1027.85 3170.26 1086.97 3130.12 1151.09C3125.56 1158.37 3120.82 1165.78 3116.01 1173.28C3089.1 1215.39 3058.57 1263.12 3045.78 1311.5C3039.04 1336.96 3037 1374.39 3040.61 1406.78C3043.69 1434.74 3053.37 1462.49 3071.97 1496.83C3102.75 1553.6 3146.4 1602.25 3198.27 1637.59C3253.72 1675.38 3319.27 1696.17 3387.89 1697.65C3391.17 1697.74 3394.48 1697.76 3397.75 1697.76C3411.41 1697.76 3424.84 1697.09 3437.99 1695.86V1692.95" fill="#3BB951"/>
<path fill-rule="evenodd" clip-rule="evenodd" d="M3437.99 1643.9C3433.18 1644.41 3428.34 1644.85 3423.49 1645.16C3361.8 1648.95 3301.71 1635.71 3249.72 1606.84C3164.47 1559.5 3082.66 1462.69 3092.12 1353.09C3097.35 1292.55 3126.23 1238.88 3153.78 1194.43C3188.45 1138.45 3228.84 1085.12 3273.84 1035.93C3317.54 988.147 3365.53 943.355 3416.42 902.785C3422.93 897.611 3430.18 891.846 3437.99 885.818V882.165C3429.49 888.686 3421.62 894.952 3414.62 900.518C3363.63 941.143 3315.53 986.049 3271.72 1033.97C3226.59 1083.27 3186.1 1136.74 3151.32 1192.9C3123.6 1237.66 3094.56 1291.69 3089.26 1352.84C3084.95 1402.79 3099.73 1454.69 3132.04 1502.92C3160.83 1545.92 3202.13 1583.75 3248.33 1609.37C3294.93 1635.26 3347.95 1648.69 3402.82 1648.69C3409.73 1648.69 3416.7 1648.5 3423.66 1648.04C3428.44 1647.76 3433.23 1647.32 3437.99 1646.85V1643.9" fill="#3BB951"/>
<path fill-rule="evenodd" clip-rule="evenodd" d="M3437.99 1602.42C3437.23 1602.53 3436.5 1602.64 3435.75 1602.75C3382.01 1609.21 3324.71 1597.8 3274.43 1570.63C3181.21 1520.27 3127.11 1428.83 3136.63 1337.68C3147.4 1234.67 3223.29 1147.03 3293.54 1072.98C3330.92 1033.59 3373.66 994.556 3424.25 953.595C3428.64 950.042 3433.27 946.375 3437.99 942.71V939.018C3432.59 943.186 3427.41 947.326 3422.43 951.357C3371.76 992.372 3328.9 1031.48 3291.46 1070.96C3220.85 1145.39 3144.64 1233.46 3133.77 1337.37C3124.12 1429.7 3178.8 1522.26 3273.06 1573.21C3314.58 1595.61 3360.79 1607.43 3405.98 1607.43C3416.08 1607.43 3426.15 1606.81 3436.11 1605.64C3436.73 1605.55 3437.37 1605.43 3437.99 1605.35V1602.42" fill="#3BB951"/>
<path fill-rule="evenodd" clip-rule="evenodd" d="M2974.87 872.765C2931.41 872.765 2888.86 897.917 2849.38 925.111C2729.12 1007.93 2670.48 1094.02 2675.08 1181.09C2681.76 1235.2 2716 1291.21 2762.31 1323.63C2778.03 1334.63 2796.8 1345.91 2816.97 1345.91C2821.68 1345.91 2826.35 1345.27 2830.85 1344.06C2856.35 1337.12 2874.75 1314.83 2891.04 1295.15C2965.96 1204.56 3044.33 1096.2 3058.69 978.131C3063.33 939.969 3051.7 890.531 3003.6 876.739C2994.4 874.094 2984.74 872.765 2974.87 872.765ZM2816.97 1348.79V1348.79C2796.02 1348.79 2776.75 1337.29 2760.66 1326.02C2713.71 1293.14 2678.98 1236.34 2672.19 1181.33C2667.55 1093.09 2726.63 1006.14 2847.76 922.707C2887.62 895.258 2930.6 869.854 2974.87 869.854C2984.99 869.854 2994.92 871.227 3004.38 873.94C3054.24 888.236 3066.32 939.187 3061.54 978.467C3047.1 1097.32 2968.45 1206.08 2893.41 1296.8C2876.71 1317.01 2857.97 1339.7 2831.62 1346.86C2826.85 1348.14 2821.94 1348.79 2816.97 1348.79V1348.79Z" fill="#3BB951"/>
<path fill-rule="evenodd" clip-rule="evenodd" d="M3437.99 1555.1C3398.2 1560.53 3356.93 1555.08 3319.16 1539.04C3236.45 1503.9 3182.37 1426.85 3184.64 1347.27C3187.24 1255.34 3254.56 1175.02 3320.09 1108.57C3353.83 1074.35 3392.44 1039.8 3437.99 1003V988.146C3436.28 989.518 3434.55 990.888 3432.84 992.261C3386.03 1029.95 3346.47 1065.31 3311.88 1100.4C3244.8 1168.44 3175.83 1250.98 3173.11 1346.94C3170.71 1431.26 3227.62 1512.77 3314.69 1549.72C3344.45 1562.38 3376.3 1568.76 3408 1568.76C3418.04 1568.76 3428.05 1568.11 3437.99 1566.82V1555.1" fill="#3BB951"/>
<path fill-rule="evenodd" clip-rule="evenodd" d="M3437.99 1512.77C3407.36 1517.79 3374.71 1516.22 3341.94 1503.23C3278.15 1477.94 3218.75 1410.82 3228.65 1331.45C3239.07 1248.1 3297.73 1181.39 3359.59 1121.74C3382.36 1099.78 3408.61 1075.66 3437.99 1052.44V1048.78C3407.8 1072.45 3380.88 1097.18 3357.61 1119.65C3295.36 1179.66 3236.32 1246.84 3225.8 1331.08C3215.72 1411.91 3276.05 1480.23 3340.88 1505.91C3362.93 1514.68 3384.92 1518.34 3406.29 1518.34C3417.03 1518.34 3427.64 1517.39 3437.99 1515.71V1512.77" fill="#3BB951"/>
<path fill-rule="evenodd" clip-rule="evenodd" d="M2903.15 1001.33C2876.85 1001.33 2848.71 1016.24 2837.85 1022.67C2789.17 1051.38 2744.76 1107.95 2755.32 1169.53C2764.91 1201.9 2786.4 1219.82 2815.83 1219.82C2841.35 1219.82 2869.69 1205.51 2889.84 1182.51C2942.6 1122.16 2961.97 1071.49 2947.37 1031.93C2939.86 1011.62 2924.97 1001.33 2903.15 1001.33ZM2815.83 1222.71V1222.71C2785.02 1222.71 2762.53 1204.06 2752.51 1170.21C2741.69 1107.08 2786.85 1049.39 2836.4 1020.15C2847.45 1013.61 2876.13 998.415 2903.15 998.415C2926.31 998.415 2942.09 1009.36 2950.05 1030.93C2965.07 1071.55 2945.51 1123.2 2891.99 1184.42C2871.34 1208.03 2842.16 1222.71 2815.83 1222.71V1222.71Z" fill="#3BB951"/>
<path fill-rule="evenodd" clip-rule="evenodd" d="M3437.99 1454.44C3422.21 1457.15 3407.15 1457.13 3392.63 1454.36C3332.03 1442.83 3288.41 1390.03 3291.16 1331.58C3294.32 1264.15 3344.37 1208.7 3392.92 1163.35C3407.18 1150.02 3422.21 1136.32 3437.99 1122.86V1119.06C3421.47 1133.05 3405.81 1147.34 3390.96 1161.22C3341.99 1206.97 3291.5 1262.99 3288.28 1331.45C3285.45 1391.35 3330.1 1445.39 3392.08 1457.21C3399.63 1458.63 3407.32 1459.36 3415.16 1459.36C3422.63 1459.36 3430.21 1458.69 3437.99 1457.38V1454.44" fill="#3BB951"/>
<path fill-rule="evenodd" clip-rule="evenodd" d="M1092.57 1067.86C1090.14 1067.86 1087.72 1067.88 1085.28 1067.91C1008.45 1068.98 930.339 1092.68 853.116 1138.33C764.943 1190.45 727.272 1249.02 741.121 1312.33C769.922 1401.31 839.883 1553.78 984.545 1573.91C993.667 1575.17 1003 1575.81 1012.26 1575.81C1080.36 1575.81 1143.07 1541.53 1200.71 1504.49C1219.76 1492.24 1239.47 1480.09 1258.52 1468.37C1307.49 1438.23 1358.11 1407.09 1403.29 1370.42C1406.38 1367.9 1409.61 1365.32 1412.96 1362.64C1454.44 1329.35 1511.27 1283.76 1510.07 1229.13C1508.51 1159.32 1416.84 1132.96 1356.18 1115.5C1350.95 1114.02 1345.97 1112.6 1341.37 1111.22C1278.93 1092.62 1185.22 1067.86 1092.57 1067.86ZM1012.26 1578.72C1012.26 1578.72 1012.27 1578.72 1012.26 1578.72C1002.86 1578.72 993.401 1578.08 984.155 1576.78C837.939 1556.45 767.393 1402.84 738.35 1313.12C724.151 1248.26 762.284 1188.67 851.649 1135.82C929.317 1089.9 1007.91 1066.07 1085.24 1065C1180.54 1063.69 1277.93 1089.29 1342.18 1108.43C1346.79 1109.8 1351.75 1111.22 1356.96 1112.74C1418.45 1130.42 1511.35 1157.14 1512.94 1229.07C1514.19 1285.14 1456.71 1331.24 1414.74 1364.9C1411.41 1367.59 1408.2 1370.17 1405.12 1372.68C1359.78 1409.48 1309.08 1440.67 1260.03 1470.86C1240.98 1482.58 1221.3 1494.69 1202.26 1506.92C1144.26 1544.22 1081.1 1578.72 1012.26 1578.72V1578.72Z" fill="#3BB951"/>
<path fill-rule="evenodd" clip-rule="evenodd" d="M137.795 1342.36C134.953 1289.76 101.434 1251.23 72.5473 1223.55C50.7527 1202.68 26.4267 1183.21 0 1165.36V1168.89C25.6703 1186.35 49.326 1205.32 70.5613 1225.66C99.0565 1252.99 132.141 1290.92 134.912 1342.53C137.43 1389.35 115.565 1429.06 96.7759 1454.1C69.625 1490.31 34.3421 1519.54 0 1547.72V1551.47C35.056 1522.74 71.2454 1492.96 99.0714 1455.83C118.152 1430.4 140.352 1390.09 137.795 1342.36" fill="#3BB951"/>
<path fill-rule="evenodd" clip-rule="evenodd" d="M3437.99 1376.44C3422.79 1376.77 3408.1 1372.41 3396.55 1363.75C3382.73 1353.4 3374.9 1337.76 3374.53 1319.75C3373.58 1274.7 3408.67 1238.86 3437.99 1211.75V1207.81C3407.88 1235.5 3370.64 1272.5 3371.65 1319.8C3372.04 1338.75 3380.26 1355.19 3394.82 1366.08C3406.49 1374.81 3421.14 1379.37 3436.36 1379.37C3436.9 1379.37 3437.45 1379.32 3437.99 1379.32V1376.44" fill="#3BB951"/>
<path fill-rule="evenodd" clip-rule="evenodd" d="M1105.36 1129.13C1027.62 1129.13 927.667 1155.07 880.271 1227.86C863.554 1253.58 856.56 1285.37 860.617 1317.34C870.324 1383.28 903.185 1440.5 950.75 1474.3C978.056 1493.72 1009.22 1503.54 1043.39 1503.54C1043.4 1503.54 1043.4 1503.54 1043.4 1503.54C1073.43 1503.54 1105.34 1496.01 1138.23 1481.18C1200.82 1452.92 1269.53 1406.88 1326.77 1354.78C1379.5 1306.74 1396.05 1264.49 1375.96 1229.16C1355.89 1193.87 1312.56 1174.73 1272.82 1160.69C1232.13 1146.29 1188.52 1136.38 1143.2 1131.23C1131 1129.83 1118.27 1129.13 1105.36 1129.13ZM1043.4 1506.45C1043.4 1506.45 1043.4 1506.45 1043.39 1506.45C1008.61 1506.45 976.882 1496.44 949.097 1476.68C900.876 1442.44 867.582 1384.5 857.763 1317.73C853.621 1285.02 860.754 1252.57 877.864 1226.27C925.891 1152.52 1026.86 1126.22 1105.36 1126.22C1118.38 1126.22 1131.22 1126.92 1143.52 1128.32C1189.05 1133.5 1232.89 1143.45 1273.78 1157.94C1314.02 1172.19 1357.91 1191.6 1378.47 1227.72C1399.03 1263.88 1381.81 1308.55 1328.69 1356.93C1271.25 1409.23 1202.28 1455.47 1139.42 1483.82C1106.14 1498.83 1073.84 1506.45 1043.4 1506.45V1506.45Z" fill="#3BB951"/>
</svg>
